<?xml version="1.0" encoding="utf-8"?>
<!-- Generator: Adobe Illustrator 22.0.0, SVG Export Plug-In . SVG Version: 6.00 Build 0)  -->
<svg version="1.1" id="Layer_1" xmlns="http://www.w3.org/2000/svg" xmlns:xlink="http://www.w3.org/1999/xlink" x="0px" y="0px"
	 viewBox="0 0 200 200" style="enable-background:new 0 0 200 200;" xml:space="preserve">
<style type="text/css">
	.st0{display:none;fill:#27262B;}
	.st1{fill:none;stroke:#FFFFFF;stroke-width:2.5298;stroke-miterlimit:10;}
	.st2{fill:none;stroke:#FFFFFF;stroke-width:6;stroke-miterlimit:10;}
	.st3{fill:#FFFFFF;}
</style>
<rect y="-0.5" class="st0" width="200" height="200"/>
<path class="st1" d="M175.4,192.6H26.1c-9.8,0-17.7-7.9-17.7-17.7V25.7C8.5,15.9,16.4,8,26.1,8h149.2c9.8,0,17.7,7.9,17.7,17.7
	v149.2C193,184.7,185.1,192.6,175.4,192.6z"/>
<g>
	<path class="st2" d="M108.8,55.6c0.2,0,1.8-0.2,2.8,0.9c1.1,1,1,2.4,1,2.6c0,7.4-0.2,15-0.2,22.4l5.1,0.1c0.5,0,0.9,0.1,1.4,0.3
		c1.4,0.6,2.4,2,2.4,3.6c0,1.4-0.7,2.5-1.7,3.2c-0.6,0.4-1.4,0.6-2.2,0.6l-5-0.1l0.2,55.6c0,2.4-2.1,4.3-4.5,4c-0.1,0-0.2,0-0.3-0.1
		c-2.1-0.4-3.3-2.2-3.2-4.3c0-1.5,0-2.9,0.1-4.4L51,139.8v3.7c0,1.1-0.4,2.2-1.1,3c-0.1,0.1-0.1,0.1-0.1,0.2c-1.1,1-2.3,1.2-2.4,1.2
		c-0.2,0-0.3,0-0.5,0c-0.9,0-2.2-0.3-2.8-0.9c-0.7-0.7-1.1-1.6-1.1-2.6V88.1L37.4,88c-0.3,0-0.6-0.1-0.9-0.2
		c-1.4-0.7-2.4-2.1-2.3-3.7c0.1-1.4,0.9-2.6,2.2-3.2c0.3-0.1,0.6-0.2,0.9-0.2l5.4,0.1l-0.1-22.3c0-0.5,0.1-1.1,0.3-1.5
		c0.2-0.4,0.5-0.7,1-1.1c0.9-0.7,2-0.8,2.3-0.8C67.1,55.2,88.1,55.4,108.8,55.6z"/>
</g>
<path class="st3" d="M161.9,114l0.1-39l5-6.5c0.8-1,1-2.3,0.6-3.5l-7.4-22.4c-0.5-1.5-1.9-2.6-3.6-2.6l-7.2,0c-1.6,0-3,1-3.6,2.6
	L138.4,65c-0.4,1.2-0.2,2.5,0.6,3.5l5,6.5l-0.1,39.1c-3.2,0.7-5.6,3.6-5.6,7.1l0,23.4c0,8.1,6.5,14.8,14.5,14.9c0.1,0,0.1,0,0.2,0
	c3.9,0,7.6-1.5,10.4-4.3c2.8-2.8,4.4-6.5,4.4-10.5l0-23.5c0-1.9-0.8-3.8-2.1-5.1C164.6,115,163.3,114.3,161.9,114z M151.7,47h2.5
	l6.2,18.5l-4.6,6c-0.5,0.6-0.8,1.5-0.8,2.3l-0.1,40h-4.1l0.1-40c0-0.8-0.3-1.6-0.8-2.3l-4.6-6L151.7,47z M160.7,144.6
	c0,2.1-0.8,4-2.3,5.5c-1.5,1.5-3.4,2.2-5.5,2.2c-4.2,0-7.6-3.6-7.6-7.9l0-23.4c0-0.1,0.1-0.3,0.3-0.3l15,0c0,0,0.1,0,0.2,0.1
	c0.1,0.1,0.1,0.2,0.1,0.2L160.7,144.6z"/>
<g>
	<path class="st3" d="M77.1,78.5c-11.9,0-21.6,9.7-21.6,21.6s9.7,21.6,21.6,21.6s21.6-9.7,21.6-21.6S89,78.5,77.1,78.5z M77.1,116.4
		c-9,0-16.3-7.3-16.3-16.3s7.3-16.3,16.3-16.3s16.3,7.3,16.3,16.3S86.1,116.4,77.1,116.4z"/>
	<path class="st3" d="M82.6,92.8l-9.9,9.9l-2.8-2.8c-1-1-2.7-1-3.8,0c-1,1-1,2.7,0,3.8l3.4,3.4c0.8,0.8,1.9,1.3,3.1,1.3h0
		c1.2,0,2.3-0.5,3.1-1.3l10.5-10.5c1-1,1-2.7,0-3.8C85.3,91.7,83.6,91.7,82.6,92.8z"/>
</g>
</svg>
