<?xml version="1.0" encoding="utf-8"?>
<!-- Generator: Adobe Illustrator 22.0.0, SVG Export Plug-In . SVG Version: 6.00 Build 0)  -->
<svg version="1.1" id="Layer_1" xmlns="http://www.w3.org/2000/svg" xmlns:xlink="http://www.w3.org/1999/xlink" x="0px" y="0px"
	 viewBox="0 0 200 200" style="enable-background:new 0 0 200 200;" xml:space="preserve">
<style type="text/css">
	.st0{display:none;fill:#27262B;}
	.st1{fill:none;stroke:#FFFFFF;stroke-width:2.5298;stroke-miterlimit:10;}
	.st2{fill:#FFFFFF;stroke:#FFFFFF;stroke-width:7;stroke-miterlimit:10;}
	.st3{fill:#FFFFFF;}
</style>
<rect class="st0" width="200" height="200"/>
<path class="st1" d="M175.4,193.1H26.1c-9.8,0-17.7-7.9-17.7-17.7V26.2c0.1-9.8,8-17.7,17.7-17.7h149.2c9.8,0,17.7,7.9,17.7,17.7
	v149.2C193,185.2,185.1,193.1,175.4,193.1z"/>
<g id="_x30_27---Forum">
	<circle id="Oval_5_" class="st2" cx="30.9" cy="32.1" r="2.6"/>
	<circle id="Oval_4_" class="st2" cx="45.3" cy="32.1" r="2.6"/>
	<circle id="Oval_3_" class="st2" cx="60.8" cy="32.1" r="2.6"/>
	<path id="Shape_30_" class="st3" d="M126.6,90.4c4.3,0,7.8-3.5,7.8-7.8V66.9c0-4.3-3.5-7.8-7.8-7.8H42.9c-4.3,0-7.8,3.5-7.8,7.8V68
		l-5.8,3.3c-1.2,0.7-2,2-2,3.4c0,1.4,0.8,2.7,2,3.4l5.9,3.3v1.1c0,4.3,3.5,7.8,7.8,7.8H126.6z M40.3,82.6V80c0-0.9-0.5-1.8-1.3-2.3
		l-5.2-3l5.2-3c0.8-0.5,1.3-1.3,1.3-2.3v-2.6c0-1.4,1.2-2.6,2.6-2.6h83.6c1.4,0,2.6,1.2,2.6,2.6v15.7c0,1.4-1.2,2.6-2.6,2.6H42.9
		C41.5,85.2,40.3,84,40.3,82.6z"/>
	<path id="Shape_29_" class="st3" d="M48.2,77.4h2.6c1.4,0,2.6-1.2,2.6-2.6c0-1.4-1.2-2.6-2.6-2.6h-2.6c-1.4,0-2.6,1.2-2.6,2.6
		C45.6,76.2,46.7,77.4,48.2,77.4z"/>
	<path id="Shape_28_" class="st3" d="M90,77.4h5.2c1.4,0,2.6-1.2,2.6-2.6c0-1.4-1.2-2.6-2.6-2.6H90c-1.4,0-2.6,1.2-2.6,2.6
		C87.4,76.2,88.5,77.4,90,77.4z"/>
	<path id="Shape_27_" class="st3" d="M105.7,77.4h15.7c1.4,0,2.6-1.2,2.6-2.6c0-1.4-1.2-2.6-2.6-2.6h-15.7c-1.4,0-2.6,1.2-2.6,2.6
		C103,76.2,104.2,77.4,105.7,77.4z"/>
	<path id="Shape_26_" class="st3" d="M61.2,77.4h18.3c1.4,0,2.6-1.2,2.6-2.6c0-1.4-1.2-2.6-2.6-2.6H61.2c-1.4,0-2.6,1.2-2.6,2.6
		C58.6,76.2,59.8,77.4,61.2,77.4z"/>
	<path id="Shape_25_" class="st3" d="M139.6,135.6c4.3,0,7.8-3.5,7.8-7.8v-15.7c0-4.3-3.5-7.8-7.8-7.8H56c-4.3,0-7.8,3.5-7.8,7.8
		v1.1l-5.8,3.3c-1.2,0.7-2,2-2,3.4s0.8,2.7,2,3.4l5.9,3.3v1.1c0,4.3,3.5,7.8,7.8,7.8H139.6z M53.4,127.8v-2.6c0-0.9-0.5-1.8-1.3-2.3
		l-5.2-3l5.2-3c0.8-0.5,1.3-1.3,1.3-2.3v-2.6c0-1.4,1.2-2.6,2.6-2.6h83.6c1.4,0,2.6,1.2,2.6,2.6v15.7c0,1.4-1.2,2.6-2.6,2.6H56
		C54.6,130.4,53.4,129.2,53.4,127.8z"/>
	<path id="Shape_24_" class="st3" d="M61.2,122.6h2.6c1.4,0,2.6-1.2,2.6-2.6c0-1.4-1.2-2.6-2.6-2.6h-2.6c-1.4,0-2.6,1.2-2.6,2.6
		C58.6,121.4,59.8,122.6,61.2,122.6z"/>
	<path id="Shape_23_" class="st3" d="M103,122.6h5.2c1.4,0,2.6-1.2,2.6-2.6c0-1.4-1.2-2.6-2.6-2.6H103c-1.4,0-2.6,1.2-2.6,2.6
		C100.4,121.4,101.6,122.6,103,122.6z"/>
	<path id="Shape_22_" class="st3" d="M118.7,122.6h15.7c1.4,0,2.6-1.2,2.6-2.6c0-1.4-1.2-2.6-2.6-2.6h-15.7c-1.4,0-2.6,1.2-2.6,2.6
		C116.1,121.4,117.3,122.6,118.7,122.6z"/>
	<path id="Shape_21_" class="st3" d="M74.3,122.6h18.3c1.4,0,2.6-1.2,2.6-2.6c0-1.4-1.2-2.6-2.6-2.6H74.3c-1.4,0-2.6,1.2-2.6,2.6
		C71.7,121.4,72.9,122.6,74.3,122.6z"/>
	<path id="Shape_20_" class="st3" d="M155.3,148.5H71.7c-4.3,0-7.8,3.5-7.8,7.8v1.1l-5.8,3.3c-1.2,0.7-2,2-2,3.4
		c0,1.4,0.8,2.7,2,3.4l5.9,3.3v1.1c0,4.3,3.5,7.8,7.8,7.8h83.6c4.3,0,7.8-3.5,7.8-7.8v-15.7C163.2,152,159.6,148.5,155.3,148.5z
		 M157.9,172c0,1.4-1.2,2.6-2.6,2.6H71.7c-1.4,0-2.6-1.2-2.6-2.6v-2.6c0-0.9-0.5-1.8-1.3-2.3l-5.2-3l5.2-3c0.8-0.5,1.3-1.3,1.3-2.3
		v-2.6c0-1.4,1.2-2.6,2.6-2.6h83.6c1.4,0,2.6,1.2,2.6,2.6V172z"/>
	<path id="Shape_19_" class="st3" d="M79.5,161.5h-2.6c-1.4,0-2.6,1.2-2.6,2.6c0,1.4,1.2,2.6,2.6,2.6h2.6c1.4,0,2.6-1.2,2.6-2.6
		C82.1,162.7,81,161.5,79.5,161.5z"/>
	<path id="Shape_18_" class="st3" d="M124,161.5h-5.2c-1.4,0-2.6,1.2-2.6,2.6c0,1.4,1.2,2.6,2.6,2.6h5.2c1.4,0,2.6-1.2,2.6-2.6
		C126.6,162.7,125.4,161.5,124,161.5z"/>
	<path id="Shape_17_" class="st3" d="M150.1,161.5h-15.7c-1.4,0-2.6,1.2-2.6,2.6c0,1.4,1.2,2.6,2.6,2.6h15.7c1.4,0,2.6-1.2,2.6-2.6
		C152.7,162.7,151.5,161.5,150.1,161.5z"/>
	<path id="Shape_16_" class="st3" d="M108.3,161.5H90c-1.4,0-2.6,1.2-2.6,2.6c0,1.4,1.2,2.6,2.6,2.6h18.3c1.4,0,2.6-1.2,2.6-2.6
		C110.9,162.7,109.7,161.5,108.3,161.5z"/>
	<rect x="15.6" y="45.1" class="st3" width="160.4" height="3.2"/>
</g>
</svg>
