<?xml version="1.0" encoding="utf-8"?>
<!-- Generator: Adobe Illustrator 22.0.0, SVG Export Plug-In . SVG Version: 6.00 Build 0)  -->
<svg version="1.1" id="Layer_1" xmlns="http://www.w3.org/2000/svg" xmlns:xlink="http://www.w3.org/1999/xlink" x="0px" y="0px"
	 viewBox="0 0 128 128" style="enable-background:new 0 0 128 128;" xml:space="preserve">
<style type="text/css">
	.st0{fill:#4FF975;stroke:#231F20;stroke-width:3;stroke-miterlimit:10;}
</style>
<g>
	<path class="st0" d="M61.6,9.7l43.8,0.1c2,0,3.9,0.7,5.2,2.2c1.3,1.3,2.8,2.8,4.1,4.7c1.6,2.2,2.6,4.2,3.5,6.1c1,2.2,1,4.7,0.3,7
		c-3.5,9.3-8.1,19.8-14.3,30.7c-5.5,10-11.6,20.2-17.2,27.9c-0.7,1-2.3,0.9-2.8-0.4c-2.5-6.5-4.8-13.8-7.4-20.4
		c-0.7-1.9-0.6-3.9,0.4-5.7c2.5-4.4,4.9-9.3,7.3-14.8c1.6-3.9,3.1-7.9,4.2-11.5c0.3-0.7-0.3-1.5-1.2-1.5H69.2c-0.9,0-1.7-0.6-2-1.5
		l-6.8-21.4C60.2,10.6,60.7,9.7,61.6,9.7z"/>
	<path class="st0" d="M55.9,12.6l7.1,24.3c0.4,1.3,0.1,2.5-0.6,3.8L51,64.7c-0.3,0.7,0.1,1.5,0.9,1.5h17.9c1.7,0,3.2,1.2,3.6,2.8
		l6.3,20.2c0.3,1.2-0.6,2.3-1.7,2.3H42.7c-1.7,4.4-4.2,9.3-7.7,14.5c-1.6,2.3-3.2,4.5-4.8,6.4c-1,1.2-2.2,2.2-3.5,2.8
		c-1.6,0.9-3.5,1.6-5.8,2.3c-3.5,1-14.8,2.8-14,0.3c6.1-18,13.5-40.4,21.8-60.1c5.5-12.8,11.1-25,16.7-36.7c1.6-3.3,3.8-6.5,6.3-9.3
		l0,0C53.2,10.3,55.5,10.9,55.9,12.6z"/>
</g>
</svg>
