<?xml version="1.0" encoding="utf-8"?>
<!-- Generator: Adobe Illustrator 22.0.0, SVG Export Plug-In . SVG Version: 6.00 Build 0)  -->
<svg version="1.1" id="Layer_1" xmlns="http://www.w3.org/2000/svg" xmlns:xlink="http://www.w3.org/1999/xlink" x="0px" y="0px"
	 viewBox="0 0 200 200" style="enable-background:new 0 0 200 200;" xml:space="preserve">
<style type="text/css">
	.st0{fill:#27262B;}
	.st1{fill:none;stroke:#FFFFFF;stroke-width:2.5298;stroke-miterlimit:10;}
	.st2{fill:#FFFFFF;}
</style>
<rect class="st0" width="200" height="200"/>
<path class="st1" d="M175.4,193.1H26.1c-9.8,0-17.7-7.9-17.7-17.7V26.2c0.1-9.8,8-17.7,17.7-17.7h149.2c9.8,0,17.7,7.9,17.7,17.7
	v149.2C193,185.2,185.1,193.1,175.4,193.1z"/>
<g>
	<g>
		<g>
			<path class="st2" d="M155.1,138.8c2.8-2.9,4.5-6.9,4.5-11.2c0-9-7.3-16.4-16.4-16.4s-16.4,7.3-16.4,16.4c0,4.4,1.7,8.3,4.5,11.3
				c-2.7,1.5-5,3.4-7,5.8c-2.6-5.9-7.2-10.7-12.9-13.7c4.4-3.8,7.2-9.3,7.2-15.5c0-11.3-9.2-20.5-20.5-20.5s-20.5,9.2-20.5,20.5
				c0,6.2,2.8,11.8,7.2,15.5c-5.7,3-10.3,7.8-12.9,13.7c-1.9-2.3-4.3-4.3-7-5.8c2.8-2.9,4.5-6.9,4.5-11.3c0-9-7.3-16.4-16.4-16.4
				s-16.4,7.3-16.4,16.4c0,4.3,1.7,8.3,4.5,11.2c-7.6,4.2-12.9,12.1-12.9,21.5v4.1c0,2.3,1.8,4.1,4.1,4.1c1.6,0,128.8,0,131.5,0
				c2.3,0,4.1-1.8,4.1-4.1v-4.1C168,151.1,162.8,143,155.1,138.8z M53.1,119.4c4.5,0,8.2,3.7,8.2,8.2s-3.7,8.2-8.2,8.2
				s-8.2-3.7-8.2-8.2S48.6,119.4,53.1,119.4z M36.5,160.3c0-9,7.5-16.4,16.6-16.4c9,0,16.4,7.3,16.4,16.4H36.5z M98.1,103
				c6.8,0,12.3,5.5,12.3,12.3c0,6.8-5.5,12.3-12.3,12.3c-6.8,0-12.3-5.5-12.3-12.3C85.9,108.5,91.4,103,98.1,103z M118.6,160.3H77.7
				v-4.1c0-11.3,9.2-20.5,20.5-20.5s20.5,9.2,20.5,20.5V160.3z M143.2,119.4c4.5,0,8.2,3.7,8.2,8.2s-3.7,8.2-8.2,8.2
				s-8.2-3.7-8.2-8.2S138.6,119.4,143.2,119.4z M126.8,160.3c0-9,7.3-16.4,16.4-16.4c9.2,0,16.6,7.3,16.6,16.4H126.8z"/>
		</g>
	</g>
	<g>
		<g>
			<path class="st2" d="M130.9,45.2H65.4c-2.3,0-4.1,1.8-4.1,4.1c0,2.3,1.8,4.1,4.1,4.1h65.5c2.3,0,4.1-1.8,4.1-4.1
				C135,47,133.1,45.2,130.9,45.2z"/>
		</g>
	</g>
	<g>
		<g>
			<path class="st2" d="M139.1,28.8H57.2c-11.3,0-20.5,9.2-20.5,20.5c0,9.9,7,18.1,16.4,20.1v13.2c0,1.7,1,3.2,2.6,3.8
				c1.5,0.6,3.3,0.3,4.5-0.9l15.2-15.7H85l9.7,15c0.8,1.2,2,1.9,3.4,1.9c1.4,0,2.7-0.7,3.4-1.9l9.7-15h9.7l15.2,15.7
				c1.2,1.2,2.9,1.6,4.5,0.9c1.5-0.6,2.6-2.1,2.6-3.8V69.3c9.3-1.9,16.4-10.2,16.4-20.1C159.5,38,150.3,28.8,139.1,28.8z
				 M139.1,61.6c-2.3,0-4.1,1.8-4.1,4.1v6.8l-9.3-9.6c-0.8-0.8-1.8-1.2-2.9-1.2H109c-1.4,0-2.7,0.7-3.4,1.9L98.1,75l-7.5-11.6
				c-0.8-1.2-2-1.9-3.4-1.9H73.6c-1.1,0-2.2,0.4-2.9,1.2l-9.3,9.6v-6.8c0-2.3-1.8-4.1-4.1-4.1c-6.8,0-12.3-5.5-12.3-12.3
				S50.4,37,57.2,37h81.8c6.8,0,12.3,5.5,12.3,12.3S145.8,61.6,139.1,61.6z"/>
		</g>
	</g>
</g>
</svg>
