<?xml version="1.0" encoding="utf-8"?>
<!-- Generator: Adobe Illustrator 22.0.0, SVG Export Plug-In . SVG Version: 6.00 Build 0)  -->
<svg version="1.1" id="Layer_1" xmlns="http://www.w3.org/2000/svg" xmlns:xlink="http://www.w3.org/1999/xlink" x="0px" y="0px"
	 viewBox="0 0 200 200" style="enable-background:new 0 0 200 200;" xml:space="preserve">
<style type="text/css">
	.st0{fill:#27262B;}
	.st1{fill:none;stroke:#FFFFFF;stroke-width:2.5298;stroke-miterlimit:10;}
	.st2{fill:#FFFFFF;}
	.st3{fill:none;stroke:#FFFFFF;stroke-width:4.779;stroke-miterlimit:10;}
	.st4{fill:none;stroke:#FFFFFF;stroke-width:4.3536;stroke-miterlimit:10;}
</style>
<rect y="0.5" class="st0" width="200" height="200"/>
<path class="st1" d="M175.4,193.6H26.1c-9.8,0-17.7-7.9-17.7-17.7V26.7C8.5,16.9,16.4,9,26.1,9h149.2c9.8,0,17.7,7.9,17.7,17.7
	v149.2C193,185.7,185.1,193.6,175.4,193.6z"/>
<g>
	<path class="st2" d="M132.8,111.5h8.4v4.2h-8.4V111.5z"/>
	<path class="st2" d="M124.4,134.6c1-0.8,2.2-1.8,3.3-3.1c2.3-2.7,3.5-5.5,4.1-7.4h10.3c2.7,8.7,10.7,14.7,20,14.7
		c11.6,0,21-9.4,21-21s-9.4-21-21-21h-18.9v-6.3c0-1.2-0.9-2.1-2.1-2.1h-2.1V73.3c0-3.5-2.8-6.3-6.3-6.3h-24.2v4.2h24.2
		c1.2,0,2.1,0.9,2.1,2.1v15.2h-2.1c-1.2,0-2.1,0.9-2.1,2.1v6.3h-18.9c-11.6,0-21,9.4-21,21c0,13.3,12.8,20.8,21,21
		c0.8,0,1.5,0,2.1-0.1c1.5-0.3,3.4-0.7,5.4-1.5C121.4,136.4,123.1,135.4,124.4,134.6z M134.9,92.6h4.2v4.2h-4.2V92.6z M162.2,134.6
		c-7.9,0-14.6-5.4-16.3-13c-0.2-1-1.1-1.6-2-1.6h-13.5c-1,0-1.8,0.7-2,1.6c-1.7,7.7-8.5,13-16.3,13c-9.2,0-16.8-7.5-16.8-16.8
		s7.5-16.8,16.8-16.8h50.3c9.2,0,16.8,7.5,16.8,16.8S171.4,134.6,162.2,134.6z"/>
	<path class="st2" d="M122.3,111.5h-4.2v-4.2c0-1.2-0.9-2.1-2.1-2.1h-8.4c-1.2,0-2.1,0.9-2.1,2.1v4.2h-4.2c-1.2,0-2.1,0.9-2.1,2.1
		v8.4c0,1.2,0.9,2.1,2.1,2.1h4.2v4.2c0,1.2,0.9,2.1,2.1,2.1h8.4c1.2,0,2.1-0.9,2.1-2.1v-4.2h4.2c1.2,0,2.1-0.9,2.1-2.1v-8.4
		C124.4,112.4,123.5,111.5,122.3,111.5z M120.2,119.9h-4.2c-1.2,0-2.1,0.9-2.1,2.1v4.2h-4.2V122c0-1.2-0.9-2.1-2.1-2.1h-4.2v-4.2
		h4.2c1.2,0,2.1-0.9,2.1-2.1v-4.2h4.2v4.2c0,1.2,0.9,2.1,2.1,2.1h4.2V119.9z"/>
	<path class="st2" d="M162.2,109.4c1.2,0,2.1,0.9,2.1,2.1h4.2c0-3.5-2.8-6.3-6.3-6.3s-6.3,2.8-6.3,6.3h4.2
		C160.1,110.3,161,109.4,162.2,109.4z"/>
	<path class="st2" d="M162.2,126.2c-1.2,0-2.1-0.9-2.1-2.1h-4.2c0,3.5,2.8,6.3,6.3,6.3s6.3-2.8,6.3-6.3h-4.2
		C164.3,125.2,163.3,126.2,162.2,126.2z"/>
	<path class="st2" d="M153.8,117.8c0-1.2,0.9-2.1,2.1-2.1v-4.2c-3.5,0-6.3,2.8-6.3,6.3s2.8,6.3,6.3,6.3v-4.2
		C154.7,119.9,153.8,118.9,153.8,117.8z"/>
	<path class="st2" d="M168.4,111.5v4.2c1.2,0,2.1,0.9,2.1,2.1s-0.9,2.1-2.1,2.1v4.2c3.5,0,6.3-2.8,6.3-6.3S171.9,111.5,168.4,111.5z
		"/>
</g>
<g>
	<g>
		<path class="st3" d="M114.6,81c0,1.5-0.7,2.9-1.9,3.7c-0.7,0.5-1.5,0.7-2.3,0.7l-5.3,0l0,7.1c-11,2.5-19.2,12.9-19.2,25.4
			c0,12.6,8.4,23.1,19.4,25.5l0,5.8c0,2.7-2.2,5-4.8,4.6c-0.1,0-0.2,0-0.3,0c-2.2-0.5-3.5-2.6-3.4-5c0-1.7,0-3.4,0.1-5l-58.1-0.1
			v4.3c0,1.3-0.4,2.6-1.2,3.5c-0.1,0.1-0.1,0.1-0.2,0.2c-1.1,1.2-2.5,1.4-2.6,1.4c-0.2,0-0.4,0-0.6,0c-1,0-2.3-0.4-3-1.1
			c-0.8-0.7-1.2-1.8-1.2-2.9V84.3l-5.8,0c-0.3,0-0.6-0.1-0.9-0.2c-1.5-0.8-2.5-2.4-2.4-4.2c0.1-1.6,1-3,2.4-3.7
			c0.3-0.1,0.6-0.2,1-0.2l5.8,0.1l-0.1-25.6c0-0.5,0.1-1.2,0.3-1.7c0.2-0.5,0.6-0.8,1.1-1.3c1-0.8,2.1-0.9,2.4-0.9
			c22.4,0.1,45,0.3,67.4,0.5c0.2,0,1.9-0.2,3.1,1c1.1,1.2,1.1,2.7,1.1,2.9c0,8.5-0.2,17.2-0.2,25.7l5.5,0c0.5,0,1,0.1,1.5,0.3
			C113.5,77.7,114.5,79.2,114.6,81z"/>
	</g>
	<path class="st4" d="M91.9,59.3v30.3c-3,2.1-6.2,4.9-7.9,8.2H44.8c-1.1,0-2.1-1-2.1-2.2V59.3c0-1.2,0.9-2.2,2.1-2.2h45
		C91,57.1,91.9,58.1,91.9,59.3z"/>
</g>
</svg>
