<?xml version="1.0" encoding="utf-8"?>
<!-- Generator: Adobe Illustrator 22.0.0, SVG Export Plug-In . SVG Version: 6.00 Build 0)  -->
<svg version="1.1" id="Layer_1" xmlns="http://www.w3.org/2000/svg" xmlns:xlink="http://www.w3.org/1999/xlink" x="0px" y="0px"
	 viewBox="0 0 300 300" style="enable-background:new 0 0 300 300;" xml:space="preserve">
<style type="text/css">
	.st0{fill:none;stroke:#F1F2F2;stroke-width:2.1962;stroke-miterlimit:10;}
	.st1{fill:none;stroke:#FFFFFF;stroke-width:1.4641;stroke-miterlimit:10;}
	.st2{fill:none;stroke:#FFFFFF;stroke-width:2.1962;stroke-miterlimit:10;}
	.st3{fill:none;stroke:#58595B;stroke-width:1.9393;stroke-miterlimit:10;}
	.st4{fill:#E6E7E8;}
	.st5{fill:none;stroke:#FFFFFF;stroke-width:0.7272;stroke-miterlimit:10;}
	.st6{fill:none;stroke:#FFFFFF;stroke-width:1.9393;stroke-miterlimit:10;}
	.st7{fill:#FFFFFF;}
	.st8{font-family:'ArialMT';}
	.st9{font-size:17.1967px;}
	.st10{fill:none;stroke:#FFFFFF;stroke-width:0.8106;stroke-miterlimit:10;}
	.st11{fill:none;stroke:#FFFFFF;stroke-width:0.7321;stroke-miterlimit:10;}
	.st12{stroke:#FFFFFF;stroke-width:2.1962;stroke-miterlimit:10;}
</style>
<g>
	<path class="st0" d="M246.5,10.7c0.6,0,5.4-0.6,8.6,2.6c3.2,3.2,3,7,3,7.7c0.1,22.3-0.6,45.2-0.5,67.5l15.5,0.1
		c1.5,0,2.9,0.3,4.3,0.8c4.3,1.9,7.2,6,7.3,10.7c0.1,4-2,7.6-5.3,9.8c-1.9,1.2-4.2,1.8-6.5,1.8l-15-0.1l0.7,167.4
		c0,7.1-6.3,13-13.6,12.1c-0.3,0-0.6-0.1-0.9-0.1c-6.3-1.2-9.9-6.8-9.6-13c0.1-4.4,0.1-8.8,0.2-13.2l-163.2-0.2l0,11.2
		c0,3.4-1.2,6.7-3.4,9.1c-0.2,0.2-0.3,0.3-0.5,0.5c-3.2,3.1-6.9,3.6-7.3,3.6c-0.6,0-1.1,0.1-1.7,0c-2.8-0.1-6.5-1-8.5-2.8
		c-2.3-1.9-3.5-4.8-3.5-7.7V108.7l-16.2-0.1c-0.9,0-1.8-0.2-2.6-0.6c-4.3-2-7.1-6.3-6.8-10.9c0.2-4.2,2.8-7.9,6.7-9.7
		c0.9-0.4,1.8-0.6,2.7-0.6L46.8,87l-0.3-67.3c0-1.4,0.3-3.2,0.9-4.5c0.6-1.2,1.6-2.2,3.1-3.4c2.8-2.2,5.8-2.4,6.8-2.5
		C120.1,9.7,183.8,10.2,246.5,10.7z"/>
	<ellipse transform="matrix(0.185 -0.9827 0.9827 0.185 124.1649 350.3951)" class="st1" cx="273.3" cy="100.3" rx="7" ry="7.2"/>
	<ellipse transform="matrix(0.185 -0.9827 0.9827 0.185 -68.9622 112.0701)" class="st1" cx="33.1" cy="97.6" rx="7" ry="7.2"/>
	<ellipse transform="matrix(0.185 -0.9827 0.9827 0.185 28.4471 75.5568)" class="st2" cx="59.8" cy="20.6" rx="7" ry="7.2"/>
	<ellipse transform="matrix(0.185 -0.9827 0.9827 0.185 178.6253 258.8202)" class="st2" cx="245.4" cy="21.7" rx="7" ry="7.2"/>
	<ellipse transform="matrix(0.185 -0.9827 0.9827 0.185 -198.8348 265.397)" class="st2" cx="60.6" cy="252.6" rx="7" ry="7.2"/>
	<ellipse transform="matrix(0.185 -0.9827 0.9827 0.185 -48.4346 449.4943)" class="st2" cx="246.8" cy="253.9" rx="7" ry="7.2"/>
	<ellipse transform="matrix(0.185 -0.9827 0.9827 0.185 -224.6666 284.5637)" class="st1" cx="59.2" cy="277.7" rx="7" ry="7.2"/>
	<ellipse transform="matrix(0.185 -0.9827 0.9827 0.185 -73.0732 470.0999)" class="st1" cx="246.9" cy="279.1" rx="7" ry="7.2"/>
	<path class="st3" d="M61.9,139.4L61.9,139.4c-0.9,0-1.6-0.7-1.6-1.6l0-6.6c0-0.9,0.7-1.6,1.6-1.6h0c0.9,0,1.6,0.7,1.6,1.6l0,6.6
		C63.6,138.7,62.8,139.4,61.9,139.4z"/>
	<ellipse transform="matrix(0.185 -0.9827 0.9827 0.185 -66.4041 158.0827)" class="st3" cx="62.1" cy="119.1" rx="4.4" ry="4.5"/>
	<polygon class="st4" points="232.4,13.9 105.3,13 105.3,9 232.4,10 	"/>
	<path class="st5" d="M45.4,118.4l-4.8,0c-1,0-1.7,0.8-1.7,1.7c0,0.9,0.8,1.7,1.7,1.7c0.7,0,1.5,0,2.2,0l0,6.2l-2.9,0
		c-0.8,0.2-1.3,1-1.3,1.7c0,0.7,0.5,1.4,1.3,1.6c1.5,0,3,0,5.5,0L45.4,118.4z"/>
	<ellipse transform="matrix(0.185 -0.9827 0.9827 0.185 -54.0216 331.8195)" class="st6" cx="173" cy="198.5" rx="13.7" ry="14.1"/>
	<ellipse transform="matrix(0.185 -0.9827 0.9827 0.185 -1.3876 356.0977)" class="st6" cx="214" cy="178.9" rx="13.7" ry="14.1"/>
	<path class="st6" d="M160.1,241.9l-16.1-0.1c-4,0-7.3-3.2-7.3-7.1l0-0.5c0-3.9,3.3-7.1,7.3-7l16.1,0.1c4,0,7.3,3.2,7.3,7.1l0,0.5
		C167.4,238.8,164.1,242,160.1,241.9z"/>
	<path class="st6" d="M93.1,167.1l19.8,0.1c0.5,0,0.9,0.4,0.9,0.8l0.1,20.9c0,0.5,0.4,0.8,0.9,0.8L136,190c0.5,0,0.8,0.4,0.8,0.8
		l0.1,18.3c0,0.4-0.4,0.8-0.8,0.8l-21.4-0.2c-0.5,0-0.8,0.4-0.8,0.8l0.1,21.7c0,0.5-0.4,0.8-0.9,0.8l-19.8-0.1
		c-0.5,0-0.9-0.4-0.9-0.8l-0.1-21.8c0-0.5-0.4-0.8-0.8-0.8L70,209.3c-0.4,0-0.8-0.4-0.8-0.8l-0.1-18.3c0-0.4,0.4-0.8,0.8-0.8
		l21.5,0.2c0.5,0,0.9-0.4,0.9-0.8L92.2,168C92.2,167.5,92.6,167.1,93.1,167.1z"/>
	<text transform="matrix(1.0302 7.579724e-03 4.142570e-03 1 208.1799 184.2867)" class="st7 st8 st9">A</text>
	<text transform="matrix(1.0302 7.579724e-03 4.142570e-03 1 167.3332 204.6841)" class="st7 st8 st9">B</text>
	<polygon class="st10" points="102.9,174.3 98.3,181.4 107.6,181.4 	"/>
	<polygon class="st10" points="103.2,226.8 107.8,219.8 98.5,219.7 	"/>
	<polygon class="st10" points="76,199.5 83.3,204 83.3,195 	"/>
	<polygon class="st10" points="130.1,199.9 122.8,195.3 122.8,204.3 	"/>
	<path class="st11" d="M103.1,206L103.1,206c-3.2,0-5.9-2.6-5.9-5.8v0c0-3.2,2.6-5.7,5.9-5.7h0c3.2,0,5.9,2.6,5.9,5.8v0
		C109,203.5,106.3,206.1,103.1,206z"/>
	<rect x="81.9" y="43.3" class="st12" width="142.1" height="110"/>
</g>
</svg>
