<?xml version="1.0" encoding="utf-8"?>
<!-- Generator: Adobe Illustrator 22.0.0, SVG Export Plug-In . SVG Version: 6.00 Build 0)  -->
<svg version="1.1" id="Layer_1" xmlns="http://www.w3.org/2000/svg" xmlns:xlink="http://www.w3.org/1999/xlink" x="0px" y="0px"
	 viewBox="0 0 400 125" style="enable-background:new 0 0 400 125;" xml:space="preserve">
<style type="text/css">
	.st0{fill:none;stroke:#4FF975;stroke-width:3.1329;stroke-miterlimit:10;}
	.st1{fill:none;stroke:#4FF975;stroke-width:1.598;stroke-miterlimit:10;}
	.st2{fill:#4FF975;stroke:#4FF975;stroke-width:0.799;stroke-miterlimit:10;}
	.st3{font-family:'ArialMT';}
	.st4{font-size:14.3819px;}
</style>
<g id="Pokitto_Logo">
	<g>
		<g>
			<g>
				<path class="st0" d="M45,40.9L75.1,41c1.4,0,2.7,0.5,3.6,1.5c0.9,0.9,1.9,1.9,2.8,3.2c1.1,1.5,1.8,2.9,2.4,4.2
					c0.7,1.5,0.7,3.2,0.2,4.8c-2.4,6.4-5.6,13.6-9.8,21.1c-3.8,6.9-8,13.9-11.8,19.2c-0.5,0.7-1.6,0.6-1.9-0.3
					c-1.7-4.5-3.3-9.5-5.1-14c-0.5-1.3-0.4-2.7,0.3-3.9c1.7-3,3.4-6.4,5-10.2c1.1-2.7,2.1-5.4,2.9-7.9c0.2-0.5-0.2-1-0.8-1l-12.7,0
					c-0.6,0-1.2-0.4-1.4-1l-4.7-14.7C44,41.5,44.4,40.9,45,40.9z"/>
				<path class="st0" d="M41.2,42.9l4.9,16.7c0.3,0.9,0.1,1.7-0.4,2.6l-7.9,16.5c-0.2,0.5,0.1,1,0.6,1h12.3c1.2,0,2.2,0.8,2.5,1.9
					l4.3,13.9c0.2,0.8-0.4,1.6-1.2,1.6H32.1c-1.2,3-2.9,6.4-5.3,10c-1.1,1.6-2.2,3.1-3.3,4.4c-0.7,0.8-1.5,1.5-2.4,1.9
					c-1.1,0.6-2.4,1.1-4,1.6c-2.4,0.7-10.2,1.9-9.6,0.2c4.2-12.4,9.3-27.8,15-41.3c3.8-8.8,7.6-17.2,11.5-25.2
					c1.1-2.3,2.6-4.5,4.3-6.4l0,0C39.3,41.4,40.8,41.7,41.2,42.9z"/>
			</g>
			<path class="st0" d="M14.1,117.8"/>
			<g>
				<path class="st0" d="M102.2,40.9l30.1,0.1c1.4,0,2.7,0.5,3.6,1.5c0.9,0.9,1.9,1.9,2.8,3.2c1.1,1.5,1.8,2.9,2.4,4.2
					c0.7,1.5,0.7,3.2,0.2,4.8c-2.4,6.4-5.6,13.6-9.8,21.1c-3.8,6.9-8,13.9-11.8,19.2c-0.5,0.7-1.6,0.6-1.9-0.3
					c-1.7-4.5-3.3-9.5-5.1-14c-0.5-1.3-0.4-2.7,0.3-3.9c1.7-3,3.4-6.4,5-10.2c1.1-2.7,2.1-5.4,2.9-7.9c0.2-0.5-0.2-1-0.8-1l-12.7,0
					c-0.6,0-1.2-0.4-1.4-1l-4.7-14.7C101.1,41.5,101.6,40.9,102.2,40.9z"/>
				<path class="st0" d="M115,97.7l-30.1-0.1c-1.4,0-2.7-0.5-3.6-1.5c-0.9-0.9-1.9-1.9-2.8-3.2c-1.1-1.5-1.8-2.9-2.4-4.2
					c-0.7-1.5-0.7-3.2-0.2-4.8c2.4-6.4,5.6-13.6,9.8-21.1c3.8-6.9,8-13.9,11.8-19.2c0.5-0.7,1.6-0.6,1.9,0.3c1.7,4.5,3.3,9.5,5.1,14
					c0.5,1.3,0.4,2.7-0.3,3.9c-1.7,3-3.4,6.4-5,10.2c-1.1,2.7-2.1,5.4-2.9,7.9c-0.2,0.5,0.2,1,0.8,1l12.7,0c0.6,0,1.2,0.4,1.4,1
					l4.7,14.7C116,97.1,115.6,97.7,115,97.7z"/>
			</g>
			<g>
				<path class="st0" d="M334,40.1l30.1,0.1c1.4,0,2.7,0.5,3.6,1.5c0.9,0.9,1.9,1.9,2.8,3.2c1.1,1.5,1.8,2.9,2.4,4.2
					c0.7,1.5,0.7,3.2,0.2,4.8c-2.4,6.4-5.6,13.6-9.8,21.1c-3.8,6.9-8,13.9-11.8,19.2c-0.5,0.7-1.6,0.6-1.9-0.3
					c-1.7-4.5-3.3-9.5-5.1-14c-0.5-1.3-0.4-2.7,0.3-3.9c1.7-3,3.4-6.4,5-10.2c1.1-2.7,2.1-5.4,2.9-7.9c0.2-0.5-0.2-1-0.8-1l-12.7,0
					c-0.6,0-1.2-0.4-1.4-1l-4.7-14.7C333,40.7,333.4,40.1,334,40.1z"/>
				<path class="st0" d="M346.9,96.9l-30.1-0.1c-1.4,0-2.7-0.5-3.6-1.5c-0.9-0.9-1.9-1.9-2.8-3.2c-1.1-1.5-1.8-2.9-2.4-4.2
					c-0.7-1.5-0.7-3.2-0.2-4.8c2.4-6.4,5.6-13.6,9.8-21.1c3.8-6.9,8-13.9,11.8-19.2c0.5-0.7,1.6-0.6,1.9,0.3c1.7,4.5,3.3,9.5,5.1,14
					c0.5,1.3,0.4,2.7-0.3,3.9c-1.7,3-3.4,6.4-5,10.2c-1.1,2.7-2.1,5.4-2.9,7.9c-0.2,0.5,0.2,1,0.8,1l12.7,0c0.6,0,1.2,0.4,1.4,1
					l4.7,14.7C347.9,96.3,347.5,96.9,346.9,96.9z"/>
			</g>
			<g>
				<path class="st0" d="M165.6,10.5c0.2-0.5,0.8-0.9,1.4-0.9h16.3c1.7,0,2,1.7,1.3,3.2L172,39.1c-0.4,0.8-0.1,1.6,0.9,1.6h27.6
					c1.5,0,2.2,1.5,1.5,2.9l-5.6,12.3c-0.4,1-1.4,1.6-2.5,1.6l-23.1,0c-0.7,0-1.2,0.7-1.1,1.4c1,3.5,2.8,8.2,6,13
					c2.5,3.8,5.2,6.6,7.5,8.7c0.5,0.4,0.6,1.2,0.4,1.8c-2.2,4.9-4.3,9.8-6.5,14.7c-0.3,0.6-1.1,0.7-1.5,0.3
					c-5.5-6-12.9-15.5-18.3-28.7c-2.9-7-4.6-13.5-5.6-19.2c-0.8-4.1-0.2-8.4,1.5-12.2C157.4,28.3,161.5,19.4,165.6,10.5z"/>
				<path class="st0" d="M148.2,48.4c0.2-0.4,1-0.4,1.1,0.1c0.6,5,1.6,11.7,4.2,18.1c0.7,1.6,1.4,3.1,2.1,4.6c0.5,1,0.5,2.2,0,3.2
					l-10.5,22.1c-0.4,0.8-1.1,1.2-2,1.2h-3.5c-0.7,0-1.4-0.2-2-0.7c-0.9-0.8-1.9-1.7-2.8-2.7c-0.3-0.3-0.6-0.7-0.9-1
					c-2.9-3.4-3.5-8.3-1.5-12.4C137.6,70.3,143,59,148.2,48.4z"/>
			</g>
			<g>
				<path class="st0" d="M218.6,17.5h16.2c1.2,0,2,1.3,1.5,2.4l-6.9,15c-0.2,0.4-0.5,0.6-0.9,0.6h-14.5c-2.1,0-3.3-2-2.4-4l6.2-13.5
					C217.8,17.7,218.2,17.5,218.6,17.5z"/>
				<path class="st0" d="M208.9,40.5l14.9,0c1.6,0,2.4,1.2,1.7,2.7l-25,53.6c-0.2,0.5-0.7,0.8-1.3,0.8h-15.6c-1.8,0-2.4-1.6-1.6-3.1
					l24.8-52.6C207.2,41,208,40.5,208.9,40.5z"/>
			</g>
			<path class="st0" d="M335.8,60.8"/>
			<g>
				<path class="st0" d="M231.6,40.5l14.5,0c0.8,0,1.4,0.6,1.4,1.4c-0.1,2.3,0.2,6.5,2.9,10.6c2.6,3.9,6,5.9,8.1,6.8
					c0.7,0.3,1,1.1,0.7,1.8c-5.7,11.9-11.4,23.7-17.1,35.6c-0.2,0.5-0.7,0.8-1.2,0.8h-15.9c-1.5,0-2.2-0.8-1.6-2.2l17.1-36.2
					c0.5-0.9-0.2-2-1.2-2l-13.1,0.1c-1.6,0-2.2-1.5-1.5-3l5.8-13C230.6,40.8,231.1,40.5,231.6,40.5z"/>
				<path class="st0" d="M261.3,15.1l16.4,0c1.4,0,2.3,1.4,1.7,2.7l-10,21.1c-0.4,0.8,0.2,1.7,1.1,1.7l14.4,0c0.6,0,1.2,0.5,1.2,1.2
					c0,2.2,0.4,6,2.7,9.9c2.6,4.4,6.2,6.6,8.3,7.6c0.6,0.3,0.8,1,0.5,1.6c-5.6,12-11.3,24.1-16.9,36.1c-0.2,0.4-0.6,0.7-1.1,0.7
					h-15.9c-1.4,0-2.3-1.5-1.7-2.7L279,59c0.4-0.8-0.2-1.7-1.1-1.7l-14.3,0.3c-3,0.1-5.9-1.1-8.1-3.2c-1.1-1.1-2.3-2.5-3.4-4.2
					c-1.3-2.1-2-4.1-2.5-5.9c-0.7-2.7-0.4-5.5,0.8-8c3.3-6.9,6.5-13.7,9.8-20.6C260.4,15.3,260.8,15.1,261.3,15.1z"/>
				<path class="st0" d="M317.8,55.5c-0.3,0.8-1.4,1.5-2.3,1.5l-13.4,0.2c-3,0.1-5.9-1.1-8.1-3.2c-1.1-1.1-2.3-2.5-3.4-4.2
					c-1.3-2.1-2-4.1-2.5-5.9c-0.7-2.7-0.4-5.5,0.8-8c3.3-6.9,6.5-13.7,9.8-20.6c0.2-0.4,0.6-0.7,1.1-0.7l16.4,0
					c1.4,0,2.3,1.4,1.7,2.7l-10,21.1c-0.4,0.8,0.2,1.7,1.1,1.7l12.8,0c1.8,0,2.5,1.8,1.7,3.4L317.8,55.5z"/>
			</g>
		</g>
		<g>
			<g>
				<path class="st0" d="M45.5,40.4l30.1,0.1c1.4,0,2.7,0.5,3.6,1.5c0.9,0.9,1.9,1.9,2.8,3.2c1.1,1.5,1.8,2.9,2.4,4.2
					c0.7,1.5,0.7,3.2,0.2,4.8c-2.4,6.4-5.6,13.6-9.8,21.1c-3.8,6.9-8,13.9-11.8,19.2c-0.5,0.7-1.6,0.6-1.9-0.3
					c-1.7-4.5-3.3-9.5-5.1-14c-0.5-1.3-0.4-2.7,0.3-3.9c1.7-3,3.4-6.4,5-10.2c1.1-2.7,2.1-5.4,2.9-7.9c0.2-0.5-0.2-1-0.8-1l-12.7,0
					c-0.6,0-1.2-0.4-1.4-1l-4.7-14.7C44.5,41,44.9,40.4,45.5,40.4z"/>
				<path class="st0" d="M41.6,42.4l4.9,16.7c0.3,0.9,0.1,1.7-0.4,2.6l-7.9,16.5c-0.2,0.5,0.1,1,0.6,1h12.3c1.2,0,2.2,0.8,2.5,1.9
					L57.9,95c0.2,0.8-0.4,1.6-1.2,1.6H32.5c-1.2,3-2.9,6.4-5.3,10c-1.1,1.6-2.2,3.1-3.3,4.4c-0.7,0.8-1.5,1.5-2.4,1.9
					c-1.1,0.6-2.4,1.1-4,1.6c-2.4,0.7-10.2,1.9-9.6,0.2c4.2-12.4,9.3-27.8,15-41.3c3.8-8.8,7.6-17.2,11.5-25.2
					c1.1-2.3,2.6-4.5,4.3-6.4l0,0C39.7,40.8,41.3,41.2,41.6,42.4z"/>
			</g>
			<path class="st0" d="M14.6,117.3"/>
			<g>
				<path class="st0" d="M102.6,40.4l30.1,0.1c1.4,0,2.7,0.5,3.6,1.5c0.9,0.9,1.9,1.9,2.8,3.2c1.1,1.5,1.8,2.9,2.4,4.2
					c0.7,1.5,0.7,3.2,0.2,4.8c-2.4,6.4-5.6,13.6-9.8,21.1c-3.8,6.9-8,13.9-11.8,19.2c-0.5,0.7-1.6,0.6-1.9-0.3
					c-1.7-4.5-3.3-9.5-5.1-14c-0.5-1.3-0.4-2.7,0.3-3.9c1.7-3,3.4-6.4,5-10.2c1.1-2.7,2.1-5.4,2.9-7.9c0.2-0.5-0.2-1-0.8-1l-12.7,0
					c-0.6,0-1.2-0.4-1.4-1l-4.7-14.7C101.6,41,102,40.4,102.6,40.4z"/>
				<path class="st0" d="M115.5,97.2l-30.1-0.1c-1.4,0-2.7-0.5-3.6-1.5c-0.9-0.9-1.9-1.9-2.8-3.2c-1.1-1.5-1.8-2.9-2.4-4.2
					c-0.7-1.5-0.7-3.2-0.2-4.8c2.4-6.4,5.6-13.6,9.8-21.1c3.8-6.9,8-13.9,11.8-19.2c0.5-0.7,1.6-0.6,1.9,0.3c1.7,4.5,3.3,9.5,5.1,14
					c0.5,1.3,0.4,2.7-0.3,3.9c-1.7,3-3.4,6.4-5,10.2c-1.1,2.7-2.1,5.4-2.9,7.9c-0.2,0.5,0.2,1,0.8,1l12.7,0c0.6,0,1.2,0.4,1.4,1
					l4.7,14.7C116.5,96.6,116.1,97.2,115.5,97.2z"/>
			</g>
			<g>
				<path class="st0" d="M334.5,39.6l30.1,0.1c1.4,0,2.7,0.5,3.6,1.5c0.9,0.9,1.9,1.9,2.8,3.2c1.1,1.5,1.8,2.9,2.4,4.2
					c0.7,1.5,0.7,3.2,0.2,4.8c-2.4,6.4-5.6,13.6-9.8,21.1c-3.8,6.9-8,13.9-11.8,19.2c-0.5,0.7-1.6,0.6-1.9-0.3
					c-1.7-4.5-3.3-9.5-5.1-14c-0.5-1.3-0.4-2.7,0.3-3.9c1.7-3,3.4-6.4,5-10.2c1.1-2.7,2.1-5.4,2.9-7.9c0.2-0.5-0.2-1-0.8-1l-12.7,0
					c-0.6,0-1.2-0.4-1.4-1l-4.7-14.7C333.4,40.2,333.9,39.6,334.5,39.6z"/>
				<path class="st0" d="M347.3,96.4l-30.1-0.1c-1.4,0-2.7-0.5-3.6-1.5c-0.9-0.9-1.9-1.9-2.8-3.2c-1.1-1.5-1.8-2.9-2.4-4.2
					c-0.7-1.5-0.7-3.2-0.2-4.8c2.4-6.4,5.6-13.6,9.8-21.1c3.8-6.9,8-13.9,11.8-19.2c0.5-0.7,1.6-0.6,1.9,0.3c1.7,4.5,3.3,9.5,5.1,14
					c0.5,1.3,0.4,2.7-0.3,3.9c-1.7,3-3.4,6.4-5,10.2c-1.1,2.7-2.1,5.4-2.9,7.9c-0.2,0.5,0.2,1,0.8,1l12.7,0c0.6,0,1.2,0.4,1.4,1
					l4.7,14.7C348.3,95.8,347.9,96.4,347.3,96.4z"/>
			</g>
			<g>
				<path class="st0" d="M166.1,10c0.2-0.5,0.8-0.9,1.4-0.9h16.3c1.7,0,2,1.7,1.3,3.2l-12.4,26.3c-0.4,0.8-0.1,1.6,0.9,1.6H201
					c1.5,0,2.2,1.5,1.5,2.9l-5.6,12.3c-0.4,1-1.4,1.6-2.5,1.6l-23.1,0c-0.7,0-1.2,0.7-1.1,1.4c1,3.5,2.8,8.2,6,13
					c2.5,3.8,5.2,6.6,7.5,8.7c0.5,0.4,0.6,1.2,0.4,1.8c-2.2,4.9-4.3,9.8-6.5,14.7c-0.3,0.6-1.1,0.7-1.5,0.3
					c-5.5-6-12.9-15.5-18.3-28.7c-2.9-7-4.6-13.5-5.6-19.2c-0.8-4.1-0.2-8.4,1.5-12.2C157.9,27.8,162,18.9,166.1,10z"/>
				<path class="st0" d="M148.6,47.8c0.2-0.4,1-0.4,1.1,0.1c0.6,5,1.6,11.7,4.2,18.1c0.7,1.6,1.4,3.1,2.1,4.6c0.5,1,0.5,2.2,0,3.2
					L145.6,96c-0.4,0.8-1.1,1.2-2,1.2h-3.5c-0.7,0-1.4-0.2-2-0.7c-0.9-0.8-1.9-1.7-2.8-2.7c-0.3-0.3-0.6-0.7-0.9-1
					c-2.9-3.4-3.5-8.3-1.5-12.4C138.1,69.8,143.4,58.5,148.6,47.8z"/>
			</g>
			<g>
				<path class="st0" d="M219.1,16.9h16.2c1.2,0,2,1.3,1.5,2.4l-6.9,15c-0.2,0.4-0.5,0.6-0.9,0.6h-14.5c-2.1,0-3.3-2-2.4-4l6.2-13.5
					C218.3,17.2,218.7,16.9,219.1,16.9z"/>
				<path class="st0" d="M209.4,40l14.9,0c1.6,0,2.4,1.2,1.7,2.7l-25,53.6c-0.2,0.5-0.7,0.8-1.3,0.8h-15.6c-1.8,0-2.4-1.6-1.6-3.1
					l24.8-52.6C207.7,40.5,208.5,40,209.4,40z"/>
			</g>
			<path class="st0" d="M336.2,60.2"/>
			<g>
				<path class="st0" d="M232.1,40l14.5,0c0.8,0,1.4,0.6,1.4,1.4c-0.1,2.3,0.2,6.5,2.9,10.6c2.6,3.9,6,5.9,8.1,6.8
					c0.7,0.3,1,1.1,0.7,1.8c-5.7,11.9-11.4,23.7-17.1,35.6c-0.2,0.5-0.7,0.8-1.2,0.8h-15.9c-1.5,0-2.2-0.8-1.6-2.2l17.1-36.2
					c0.5-0.9-0.2-2-1.2-2l-13.1,0.1c-1.6,0-2.2-1.5-1.5-3l5.8-13C231.1,40.3,231.6,40,232.1,40z"/>
				<path class="st0" d="M261.7,14.6l16.4,0c1.4,0,2.3,1.4,1.7,2.7l-10,21.1c-0.4,0.8,0.2,1.7,1.1,1.7l14.4,0c0.6,0,1.2,0.5,1.2,1.2
					c0,2.2,0.4,6,2.7,9.9c2.6,4.4,6.2,6.6,8.3,7.6c0.6,0.3,0.8,1,0.5,1.6c-5.6,12-11.3,24.1-16.9,36.1c-0.2,0.4-0.6,0.7-1.1,0.7
					l-15.9,0c-1.4,0-2.3-1.5-1.7-2.7l17.2-35.8c0.4-0.8-0.2-1.7-1.1-1.7l-14.3,0.3c-3,0.1-5.9-1.1-8.1-3.2c-1.1-1.1-2.3-2.5-3.4-4.2
					c-1.3-2.1-2-4.1-2.5-5.9c-0.7-2.7-0.4-5.5,0.8-8c3.3-6.9,6.5-13.7,9.8-20.6C260.8,14.8,261.3,14.6,261.7,14.6z"/>
				<path class="st0" d="M318.2,55c-0.3,0.8-1.4,1.5-2.3,1.5l-13.4,0.2c-3,0.1-5.9-1.1-8.1-3.2c-1.1-1.1-2.3-2.5-3.4-4.2
					c-1.3-2.1-2-4.1-2.5-5.9c-0.7-2.7-0.4-5.5,0.8-8c3.3-6.9,6.5-13.7,9.8-20.6c0.2-0.4,0.6-0.7,1.1-0.7l16.4,0
					c1.4,0,2.3,1.4,1.7,2.7l-10,21.1c-0.4,0.8,0.2,1.7,1.1,1.7l12.8,0c1.8,0,2.5,1.8,1.7,3.4L318.2,55z"/>
			</g>
		</g>
	</g>
	<g>
		<circle class="st1" cx="383.9" cy="19.9" r="9.9"/>
		<text transform="matrix(1 0 0 1 378.8564 25.1978)" class="st2 st3 st4">R</text>
	</g>
</g>
</svg>
