<?xml version="1.0" encoding="utf-8"?>
<!-- Generator: Adobe Illustrator 22.0.0, SVG Export Plug-In . SVG Version: 6.00 Build 0)  -->
<svg version="1.1" id="Layer_1" xmlns="http://www.w3.org/2000/svg" xmlns:xlink="http://www.w3.org/1999/xlink" x="0px" y="0px"
	 viewBox="0 0 200 200" style="enable-background:new 0 0 200 200;" xml:space="preserve">
<style type="text/css">
	.st0{display:none;fill:#27262B;}
	.st1{fill:none;stroke:#FFFFFF;stroke-width:2.5298;stroke-miterlimit:10;}
	.st2{fill:#FFFFFF;}
</style>
<rect y="0.5" class="st0" width="200" height="200"/>
<path class="st1" d="M175.4,193.6H26.1c-9.8,0-17.7-7.9-17.7-17.7V26.7C8.5,16.9,16.4,9,26.1,9h149.2c9.8,0,17.7,7.9,17.7,17.7
	v149.2C193,185.7,185.1,193.6,175.4,193.6z"/>
<g>
	<g>
		<g>
			<path class="st2" d="M159.7,44H40.3c-3.5,0-6.4,2.9-6.4,6.4v74.9c0,3.5,2.9,6.4,6.4,6.4H85v14.5H67.6c-3.3,0-5.9,2.7-5.9,5.9
				c0,3.3,2.7,5.9,5.9,5.9h64.8c3.3,0,5.9-2.7,5.9-5.9c0-3.3-2.7-5.9-5.9-5.9H115v-14.5h44.6c3.5,0,6.4-2.9,6.4-6.4V50.4
				C166.1,46.8,163.2,44,159.7,44z M156.5,122.1h-113V53.6h113V122.1z"/>
			<path class="st2" d="M64.2,91.4l20.2,9.4c0.5,0.2,1.1,0.4,1.7,0.4c0.7,0,1.5-0.2,2.1-0.6c1.1-0.7,1.8-2,1.8-3.3v-0.1
				c0-1.5-0.9-2.9-2.3-3.6l-12.6-5.9l12.6-5.9c1.4-0.6,2.3-2,2.3-3.6v-0.1c0-1.3-0.7-2.6-1.8-3.3c-0.6-0.4-1.4-0.6-2.1-0.6
				c-0.6,0-1.1,0.1-1.7,0.4L64.2,84c-1.4,0.6-2.3,2-2.3,3.6v0.3C61.9,89.4,62.8,90.8,64.2,91.4z"/>
			<path class="st2" d="M90.1,110.6c0.7,1,1.9,1.6,3.2,1.6h0.1c1.7,0,3.2-1.1,3.7-2.7l13.3-41.2c0.4-1.2,0.2-2.5-0.6-3.5
				c-0.7-1-1.9-1.6-3.2-1.6h-0.1c-1.7,0-3.2,1.1-3.7,2.7l-13.3,41.2C89.2,108.2,89.4,109.6,90.1,110.6z"/>
			<path class="st2" d="M110,78.3c0,1.5,0.9,2.9,2.3,3.6l12.6,5.9l-12.6,5.9c-1.4,0.6-2.3,2-2.3,3.6v0.1c0,1.3,0.7,2.6,1.8,3.3
				c0.6,0.4,1.4,0.6,2.1,0.6c0.6,0,1.1-0.1,1.7-0.4l20.2-9.4c1.4-0.6,2.3-2,2.3-3.6v-0.3c0-1.5-0.9-2.9-2.3-3.6l-20.2-9.4
				c-0.5-0.2-1.1-0.4-1.6-0.4c-0.8,0-1.5,0.2-2.1,0.6c-1.1,0.7-1.8,2-1.8,3.3V78.3L110,78.3z"/>
		</g>
	</g>
</g>
</svg>
